<svg xmlns="http://www.w3.org/2000/svg" width="60" height="60" viewBox="0 0 60 60">
  <g id="Artboard" fill="none" fill-rule="evenodd">
    <g id="Group" fill="#FFF" transform="translate(18 9)">
      <path id="Path" d="M11.2,34.4 C10.2,34.4 9.4,34.7 8.6,35.4 C7.9,36.1 7.6,36.9 7.6,37.9 C7.6,39 7.9,39.9 8.6,40.6 C9.3,41.3 10.2,41.7 11.2,41.7 C12.2,41.7 13.1,41.3 13.8,40.6 C14.5,39.9 14.9,39 14.9,37.9 C14.9,36.9 14.6,36.1 13.8,35.4 C13,34.7 12.2,34.4 11.2,34.4 Z"/>
      <path d="M20.4,2.9 C18.2,1 15.5,0 12.2,0 C7.9,0 5.6,1.3 3.5,3 C1.4,4.8 0,7.6 0,9.5 C0,10.9 0.4,12 1.2,12.8 C2,13.6 2.9,14.1 4.1,14.1 C5.1,14.1 6.1,13.5 6.6,12.6 C6.7,12.4 6.8,12.1 6.9,11.8 C7,11.5 7,11.2 7,10.9 C7,10.1 6.7,9.4 6.1,8.8 C5.4,8.3 4.7,7.9 4.5,7.2 C4.4,6.9 4.4,6.6 4.4,6.3 C4.4,5.5 4.9,4.3 6,3.6 C7.1,2.8 9,2 11.2,2 C13.1,2 14.7,2.7 16.1,4 C17.4,5.4 18.1,7.1 18.1,9.4 C18.1,11 17.8,12.5 17.3,13.9 C16.8,15.3 15.9,16.7 14.6,18.3 C13.6,19.5 12.8,20.5 12.3,21.3 C12.5,19.8 12.8,18.2 13.1,16.4 C13.7,13 14,10.7 14,9.5 C14,8.1 13.7,7.1 13.2,6.5 C12.7,5.9 11.9,5.5 11,5.5 C10.1,5.5 9.4,5.8 8.8,6.5 C8.2,7.2 8,8.2 8,9.5 C8,10.6 8.3,12.8 8.9,16.3 C9.5,19.4 9.9,22.1 10.1,24.4 C10.2,25.8 10.2,27.4 10.2,30.5 L10.2,30.7 L11.6,30.7 L11.6,30.6 C11.7,27.9 12,25.9 12.6,24.7 C13.2,23.5 15,21.7 18,19.2 C20.3,17.3 21.7,15.8 22.2,14.7 C22.9,13.3 23.3,11.7 23.3,9.9 C23.6,7.1 22.5,4.8 20.4,2.9 Z"/>
    </g>
  </g>
</svg>
