<svg height="170" viewBox="0 0 170 170" width="170" xmlns="http://www.w3.org/2000/svg"><g fill="none" fill-rule="evenodd"><path d="m0 0h170v170h-170z" fill="#000"/><g fill="#fff"><path d="m117 117h48v48h-48z"/><g fill-rule="nonzero" transform="translate(5 -14)"><path d="m15.2290909 57v-3.9272727h-5.23636363l2.26909093-6.5454546h14.5745454l2.2254546 6.5454546h-5.2363637v3.9272727h13.2654546v-3.9272727h-3.5781818l-11.1272728-30.9818182h-5.4545454l-11.12727274 30.9818182h-3.62181818v3.9272727zm10.3854546-13.9636364h-12.1745455l6.1090909-17.7163636z"/><path d="m33.164 114v-10.909h-4.364v6.982h-15.709v-13.091h10.909v-3.927h-10.909v-10.037h15.709v6.982h4.364v-10.909h-29.673v3.927h5.236v27.055h-5.236v3.927z"/><path d="m91.164 57v-10.909h-4.364v6.982h-15.709v-13.091h10.909v-3.927h-10.909v-10.037h15.709v6.982h4.364v-10.909h-29.673v3.927h5.236v27.055h-5.236v3.927z"/><path d="m78.4545455 114.436364c4.3345454 0 7.6-1.047273 9.7963636-3.141819 2.1963636-2.094545 3.2945454-5.221818 3.2945454-9.381818v-10.5599997c0-4.2181818-1.090909-7.3890909-3.2727272-9.5127273s-5.44-3.1854545-9.7745455-3.1854545c-4.3345454 0-7.6072727 1.0618181-9.8181818 3.1854545s-3.3163636 5.2945455-3.3163636 9.5127273v10.5599997c0 4.16 1.0981818 7.287273 3.2945454 9.381818 2.1963637 2.094546 5.4618182 3.141819 9.7963637 3.141819zm0-3.927273c-3.1418182 0-5.3818182-.661818-6.72-1.985455-1.3381819-1.323636-2.0072728-3.527272-2.0072728-6.610909v-10.5599997c0-3.1418182.6690909-5.3890909 2.0072728-6.7418182 1.3381818-1.3527273 3.5781818-2.0290909 6.72-2.0290909 3.1418181 0 5.3818181.6763636 6.72 2.0290909 1.3381818 1.3527273 2.0072727 3.6 2.0072727 6.7418182v10.5599997c0 3.083637-.6690909 5.287273-2.0072727 6.610909-1.3381819 1.323637-3.5781819 1.985455-6.72 1.985455z"/><path d="m133.454545 57v-3.9272727h-4.363636v-9.6h8.683636l6.109091 13.5272727h8.334546v-3.9272727h-5.454546l-4.494545-9.9054546c2.414545-.4654545 4.24-1.4327272 5.476364-2.9018182 1.236363-1.4690909 1.854545-3.410909 1.854545-5.8254545v-2.7054545c0-3.1418182-.923636-5.5345455-2.770909-7.1781819-1.847273-1.6436363-4.545455-2.4654545-8.094546-2.4654545h-19.243636v3.9272727h5.236364v27.0545455h-5.236364v3.9272727zm5.236364-17.3672727h-9.6v-13.6145455h9.6c2.501818 0 4.218182.4072727 5.149091 1.2218182s1.396364 2.3127273 1.396364 4.4945455v2.7054545c0 1.9781818-.465455 3.3381818-1.396364 4.08s-2.647273 1.1127273-5.149091 1.1127273z"/></g></g></g></svg>