<svg height="60" viewBox="0 0 60 60" width="60" xmlns="http://www.w3.org/2000/svg"><g fill="#fff" fill-rule="evenodd" transform="translate(18 9)"><path d="m11.2 34.4c-1 0-1.8.3-2.6 1-.7.7-1 1.5-1 2.5 0 1.1.3 2 1 2.7s1.6 1.1 2.6 1.1 1.9-.4 2.6-1.1 1.1-1.6 1.1-2.7c0-1-.3-1.8-1.1-2.5s-1.6-1-2.6-1z"/><path d="m20.4 2.9c-2.2-1.9-4.9-2.9-8.2-2.9-4.3 0-6.6 1.3-8.7 3-2.1 1.8-3.5 4.6-3.5 6.5 0 1.4.4 2.5 1.2 3.3s1.7 1.3 2.9 1.3c1 0 2-.6 2.5-1.5.1-.2.2-.5.3-.8s.1-.6.1-.9c0-.8-.3-1.5-.9-2.1-.7-.5-1.4-.9-1.6-1.6-.1-.3-.1-.6-.1-.9 0-.8.5-2 1.6-2.7 1.1-.8 3-1.6 5.2-1.6 1.9 0 3.5.7 4.9 2 1.3 1.4 2 3.1 2 5.4 0 1.6-.3 3.1-.8 4.5s-1.4 2.8-2.7 4.4c-1 1.2-1.8 2.2-2.3 3 .2-1.5.5-3.1.8-4.9.6-3.4.9-5.7.9-6.9 0-1.4-.3-2.4-.8-3s-1.3-1-2.2-1-1.6.3-2.2 1-.8 1.7-.8 3c0 1.1.3 3.3.9 6.8.6 3.1 1 5.8 1.2 8.1.1 1.4.1 3 .1 6.1v.2h1.4v-.1c.1-2.7.4-4.7 1-5.9s2.4-3 5.4-5.5c2.3-1.9 3.7-3.4 4.2-4.5.7-1.4 1.1-3 1.1-4.8.3-2.8-.8-5.1-2.9-7z"/></g></svg>